# xmcd
#
# Track frame offsets:
#	150
#	16505
#	31192
#	48589
#	64220
#	84267
#	100600
#	119055
#	139520
#	155300
#	173497
#
# Disc length: 2656 seconds
#
# Revision: 0
# Processed by: cddbd v1.5.2PL0 Copyright (c) Steve Scherf et al.
# Submitted via: EasyCDDAExtractor 16.0.9.1
#
DISCID=7a0a5e0b
DTITLE=Michelle-E - KH58: Summer Splash Mix
DYEAR=1900
DGENRE=Pop
TTITLE0=Michelle-E ft. Gilbert La - Love Is A Stranger
TTITLE1=Michelle-E - Angel Eyes
TTITLE2=Michelle-E - Sexual
TTITLE3=Michelle-E - Disco Motion
TTITLE4=Michelle-E - Chili Cha Cha
TTITLE5=Michelle-E - Time...
TTITLE6=Michelle-E - Mono
TTITLE7=Michelle-E ft. Thai Tai - Cha Cha D'amour
TTITLE8=Michelle-E - Do You Miss Me
TTITLE9=Michelle-E - Turn The Beat Around
TTITLE10=Michelle-E - Disco Motion (Remix)
EXTD=
EXTT0=
EXTT1=
EXTT2=
EXTT3=
EXTT4=
EXTT5=
EXTT6=
EXTT7=
EXTT8=
EXTT9=
EXTT10=
PLAYORDER=
